<?xml version="1.0" standalone="no"?>
<!DOCTYPE svg PUBLIC "-//W3C//DTD SVG 20010904//EN"
 "http://www.w3.org/TR/2001/REC-SVG-20010904/DTD/svg10.dtd">
<svg version="1.0" xmlns="http://www.w3.org/2000/svg"
 width="64.000000pt" height="64.000000pt" viewBox="0 0 64.000000 64.000000"
 preserveAspectRatio="xMidYMid meet">

<g transform="translate(0.000000,64.000000) scale(0.100000,-0.100000)"
fill="#000000" stroke="none">
<path d="M12 628 c-18 -18 -17 -554 1 -565 11 -7 258 -62 285 -63 7 0 15 13
18 30 6 29 7 29 83 32 l76 3 0 95 c0 90 -1 95 -22 98 -21 3 -22 -1 -25 -75
l-3 -78 -52 -3 -53 -3 -2 228 -3 227 -44 13 c-24 7 -46 15 -49 18 -3 3 42 5
101 5 l106 0 3 -77 c3 -70 5 -78 23 -78 18 0 20 8 23 80 2 44 0 90 -3 102 l-5
23 -223 0 c-160 0 -226 -3 -235 -12z"/>
<path d="M513 434 c-3 -8 4 -25 17 -40 l23 -24 -87 0 c-85 0 -87 -1 -84 -22 3
-21 9 -23 87 -28 83 -5 83 -5 62 -24 -25 -23 -27 -44 -5 -53 16 -6 114 81 114
102 0 15 -93 105 -108 105 -7 0 -15 -7 -19 -16z"/>
</g>
</svg>
