<?xml version="1.0" standalone="no"?>
<!DOCTYPE svg PUBLIC "-//W3C//DTD SVG 20010904//EN"
 "http://www.w3.org/TR/2001/REC-SVG-20010904/DTD/svg10.dtd">
<svg version="1.0" xmlns="http://www.w3.org/2000/svg"
 width="512.000000pt" height="512.000000pt" viewBox="0 0 512.000000 512.000000"
 preserveAspectRatio="xMidYMid meet">

<g transform="translate(0.000000,512.000000) scale(0.100000,-0.100000)"
fill="#000000" stroke="none">
<path d="M290 5011 c-69 -21 -130 -73 -166 -141 -18 -34 -19 -110 -19 -2310
l0 -2275 22 -40 c25 -47 74 -95 123 -121 34 -18 110 -19 2310 -19 l2275 0 40
22 c47 25 95 74 121 123 18 34 19 110 19 2310 0 2200 -1 2276 -19 2310 -26 49
-74 98 -121 123 l-40 22 -2260 2 c-1243 1 -2271 -2 -2285 -6z m4541 -134 c19
-12 42 -38 51 -57 17 -33 18 -162 18 -2260 0 -2099 -1 -2227 -18 -2259 -9 -19
-30 -44 -45 -55 l-28 -21 -2237 -3 c-2114 -2 -2239 -1 -2272 15 -19 10 -45 33
-57 52 l-23 34 0 2236 c0 2214 0 2236 20 2269 11 18 34 41 52 52 33 20 55 20
2269 20 l2236 0 34 -23z"/>
<path d="M495 4706 c-37 -16 -70 -52 -84 -89 -8 -20 -11 -645 -11 -2058 0
-2242 -5 -2071 66 -2125 l37 -29 2058 0 2058 0 27 21 c15 11 37 33 48 48 l21
27 0 2058 0 2058 -29 37 c-54 71 117 66 -2128 66 -1672 -1 -2038 -3 -2063 -14z
m4093 -118 c17 -17 17 -4039 0 -4056 -17 -17 -4039 -17 -4056 0 -17 17 -17
4039 0 4056 17 17 4039 17 4056 0z"/>
<path d="M690 4460 c-18 -18 -20 -33 -20 -140 0 -107 2 -122 20 -140 11 -11
25 -20 31 -20 15 0 53 21 61 34 4 6 8 64 8 129 0 104 -2 119 -20 137 -11 11
-29 20 -40 20 -11 0 -29 -9 -40 -20z"/>
<path d="M690 4020 c-19 -19 -20 -33 -20 -375 0 -342 1 -356 20 -375 11 -11
29 -20 40 -20 11 0 29 9 40 20 19 19 20 33 20 375 0 342 -1 356 -20 375 -11
11 -29 20 -40 20 -11 0 -29 -9 -40 -20z"/>
<path d="M858 4029 c-12 -6 -18 -22 -18 -44 0 -58 22 -65 192 -65 l148 0 0
-1440 0 -1440 -173 0 c-140 0 -177 -3 -195 -16 -27 -19 -29 -64 -4 -87 17 -16
153 -17 1754 -17 1668 0 1736 1 1751 18 24 26 21 68 -5 86 -20 14 -180 16
-1515 16 l-1493 0 0 1176 0 1176 235 264 236 264 545 0 545 0 -3 -121 -3 -122
-42 -12 c-101 -30 -194 -112 -241 -213 -23 -49 -27 -70 -27 -152 0 -82 4 -103
27 -152 47 -101 140 -183 241 -213 l42 -12 3 -101 3 -100 -228 -114 c-211
-105 -228 -115 -231 -141 -4 -34 22 -67 53 -67 11 0 98 38 191 84 94 46 181
87 192 91 l22 6 0 -333 0 -333 -230 -230 c-242 -242 -255 -260 -212 -298 41
-37 57 -26 284 200 l218 218 218 -218 c154 -153 224 -217 240 -217 28 0 62 34
62 62 0 15 -70 92 -230 253 l-230 231 0 332 c0 182 2 332 6 332 3 0 90 -41
194 -91 145 -70 195 -90 214 -85 31 8 50 40 41 73 -5 21 -42 42 -231 134
l-225 108 3 102 3 102 42 12 c101 30 194 112 241 213 23 49 27 70 27 152 0 82
-4 103 -27 152 -47 101 -140 183 -241 213 l-42 12 -3 122 -3 121 315 0 c288 0
316 1 336 18 25 20 30 63 10 87 -11 13 -176 15 -1389 15 -916 -1 -1382 -4
-1393 -11z m742 -114 c0 -6 -291 -335 -297 -335 -1 0 -3 77 -3 170 l0 170 150
0 c83 0 150 -2 150 -5z m1420 -376 c169 -76 212 -286 87 -417 -54 -57 -102
-77 -187 -77 -85 0 -133 20 -186 77 -54 57 -69 95 -69 178 0 83 15 121 69 178
73 79 192 104 286 61z"/>
</g>
</svg>
