<?xml version="1.0" standalone="no"?>
<!DOCTYPE svg PUBLIC "-//W3C//DTD SVG 20010904//EN"
 "http://www.w3.org/TR/2001/REC-SVG-20010904/DTD/svg10.dtd">
<svg version="1.0" xmlns="http://www.w3.org/2000/svg"
 width="64.000000pt" height="64.000000pt" viewBox="0 0 64.000000 64.000000"
 preserveAspectRatio="xMidYMid meet">

<g transform="translate(0.000000,64.000000) scale(0.100000,-0.100000)"
fill="#000000" stroke="none">
<path d="M304 587 c-9 -25 0 -62 16 -62 10 0 15 10 15 34 0 36 -21 54 -31 28z"/>
<path d="M120 507 c0 -16 32 -47 48 -47 18 0 14 25 -6 43 -22 20 -42 22 -42 4z"/>
<path d="M477 502 c-20 -22 -22 -42 -4 -42 16 0 47 32 47 48 0 18 -25 14 -43
-6z"/>
<path d="M250 458 c-48 -25 -90 -89 -90 -138 0 -49 42 -113 90 -137 56 -29 84
-29 140 0 48 24 90 88 90 137 0 49 -42 113 -90 138 -24 12 -56 22 -70 22 -14
0 -46 -10 -70 -22z"/>
<path d="M45 330 c-11 -18 10 -32 41 -28 40 4 38 32 -3 36 -17 2 -34 -2 -38
-8z"/>
<path d="M525 330 c-11 -18 10 -32 41 -28 40 4 38 32 -3 36 -17 2 -34 -2 -38
-8z"/>
<path d="M137 162 c-20 -22 -22 -42 -4 -42 16 0 47 32 47 48 0 18 -25 14 -43
-6z"/>
<path d="M460 167 c0 -16 32 -47 48 -47 18 0 14 25 -6 43 -22 20 -42 22 -42 4z"/>
<path d="M304 107 c-9 -25 0 -62 16 -62 10 0 15 10 15 34 0 36 -21 54 -31 28z"/>
</g>
</svg>
